<svg width="48" height="48" viewBox="0 0 640 384" fill="none" xmlns="http://www.w3.org/2000/svg">
<path d="M323.4 21.2L226.6 99.6C210.5 112.6 207.4 136 219.6 152.7C232.5 170.5 257.6 174 274.9 160.5L374.2 83.3C381.2 77.9 391.2 79.1 396.7 86.1C402.2 93.1 400.9 103.1 393.9 108.6L373 124.8L550.2 288H592C618.5 288 640 266.5 640 240V112C640 85.5 618.5 64 592 64H516H512H511.3L507.4 61.5L434.8 15C419.5 5.2 401.6 0 383.4 0C361.6 0 340.4 7.5 323.4 21.2ZM346.2 145.6L294.5 185.8C263 210.4 217.3 204 193.7 171.6C171.5 141.1 177.1 98.5 206.4 74.8L289.6 7.5C278 2.6 265.5 0.0999985 252.8 0.0999985C234 -1.52737e-06 215.7 5.6 200 16L128 64H48C21.5 64 0 85.5 0 112V240C0 266.5 21.5 288 48 288H156.2L247.6 371.4C267.2 389.3 297.5 387.9 315.4 368.3C320.9 362.2 324.6 355.1 326.5 347.7L343.5 363.3C363 381.2 393.4 379.9 411.3 360.4C415.8 355.5 419.1 349.8 421.2 343.9C440.6 356.9 467 354.2 483.3 336.4C501.2 316.9 499.9 286.5 480.4 268.6L346.2 145.6Z" fill="#FFBF00"/>
</svg>
