<svg width="48" height="48" viewBox="0 0 384 512" fill="none" xmlns="http://www.w3.org/2000/svg">
<g clip-path="url(#clip0_567_188)">
<path d="M32 0C14.3 0 0 14.3 0 32C0 49.7 14.3 64 32 64V75C32 117.4 48.9 158.1 78.9 188.1L146.7 256L78.9 323.9C48.9 353.9 32 394.6 32 437V448C14.3 448 0 462.3 0 480C0 497.7 14.3 512 32 512H64H320H352C369.7 512 384 497.7 384 480C384 462.3 369.7 448 352 448V437C352 394.6 335.1 353.9 305.1 323.9L237.3 256L305.2 188.1C335.2 158.1 352.1 117.4 352.1 75V64C369.8 64 384.1 49.7 384.1 32C384.1 14.3 369.8 0 352.1 0H320H64H32ZM288 437V448H96V437C96 411.5 106.1 387.1 124.1 369.1L192 301.3L259.9 369.2C277.9 387.2 288 411.6 288 437.1V437Z" fill="#FFBF00"/>
</g>
<defs>
<clipPath id="clip0_567_188">
<rect width="384" height="512" fill="white"/>
</clipPath>
</defs>
</svg>
