<svg width="48" height="48" viewBox="0 0 576 512" fill="none" xmlns="http://www.w3.org/2000/svg">
<path d="M0 112.5V422.3C0 440.3 10.1 457.3 27 463.6C114 496.1 201 473.9 288 451.7C367.8 431.4 447.6 411 527.3 432.8C550.3 439.1 576 423.3 576 399.4V89.7C576 71.7 565.9 54.7 549 48.4C462 15.9 375 38.1 288 60.3C208.2 80.6 128.4 100.9 48.7 79.1C25.6 72.8 0 88.6 0 112.5ZM128 416H64V352C99.3 352 128 380.7 128 416ZM64 224V160H128C128 195.3 99.3 224 64 224ZM448 352C448 316.7 476.7 288 512 288V352H448ZM512 160C476.7 160 448 131.3 448 96H512V160ZM384 256C384 317.9 341 368 288 368C235 368 192 317.9 192 256C192 194.1 235 144 288 144C341 144 384 194.1 384 256ZM252 208C252 217.7 258.9 225.7 268 227.6V276H264C253 276 244 285 244 296C244 307 253 316 264 316H288H312C323 316 332 307 332 296C332 285 323 276 312 276H308V208C308 197 299 188 288 188H272C261 188 252 197 252 208Z" fill="#FFBF00"/>
</svg>
